<svg width="22" height="22" viewBox="0 0 22 22" fill="none" xmlns="http://www.w3.org/2000/svg">
<path d="M12.8333 2.75V6.41667C12.8333 6.92293 13.2437 7.33333 13.7499 7.33333H17.4166" stroke="#384459" stroke-width="1.75" stroke-linecap="round" stroke-linejoin="round"/>
<path d="M12.8333 2.75V6.41667C12.8333 6.92293 13.2437 7.33333 13.7499 7.33333H17.4166" stroke="#384459" stroke-width="1.75" stroke-linecap="round" stroke-linejoin="round"/>
<path fill-rule="evenodd" clip-rule="evenodd" d="M15.5833 19.25H6.41659C5.40406 19.25 4.58325 18.4292 4.58325 17.4167V4.58333C4.58325 3.57081 5.40406 2.75 6.41659 2.75H12.8333L17.4166 7.33333V17.4167C17.4166 18.4292 16.5958 19.25 15.5833 19.25Z" stroke="#384459" stroke-width="1.75" stroke-linecap="round" stroke-linejoin="round"/>
<path fill-rule="evenodd" clip-rule="evenodd" d="M15.5833 19.25H6.41659C5.40406 19.25 4.58325 18.4292 4.58325 17.4167V4.58333C4.58325 3.57081 5.40406 2.75 6.41659 2.75H12.8333L17.4166 7.33333V17.4167C17.4166 18.4292 16.5958 19.25 15.5833 19.25Z" stroke="#384459" stroke-width="1.75" stroke-linecap="round" stroke-linejoin="round"/>
<path d="M8.25 8.24996H9.16667" stroke="#384459" stroke-width="1.75" stroke-linecap="round" stroke-linejoin="round"/>
<path d="M8.25 8.24996H9.16667" stroke="#384459" stroke-width="1.75" stroke-linecap="round" stroke-linejoin="round"/>
<path d="M8.25 11.9167H13.75" stroke="#384459" stroke-width="1.75" stroke-linecap="round" stroke-linejoin="round"/>
<path d="M8.25 11.9167H13.75" stroke="#384459" stroke-width="1.75" stroke-linecap="round" stroke-linejoin="round"/>
<path d="M8.25 15.5833H13.75" stroke="#384459" stroke-width="1.75" stroke-linecap="round" stroke-linejoin="round"/>
<path d="M8.25 15.5833H13.75" stroke="#384459" stroke-width="1.75" stroke-linecap="round" stroke-linejoin="round"/>
</svg>
