<svg width="22" height="22" viewBox="0 0 22 22" fill="none" xmlns="http://www.w3.org/2000/svg">
<path d="M12.4669 3.32122L18.4655 8.1201C18.722 8.33038 18.9718 8.68577 19.1387 9.12256C19.3053 9.55855 19.3569 9.99093 19.3076 10.3199L18.1549 17.2181C18.1547 17.219 18.1545 17.2199 18.1544 17.2209C17.9693 18.2776 16.9142 19.1667 15.8585 19.1667H6.1418C5.06531 19.1667 4.04016 18.3027 3.85523 17.2312C3.85511 17.2305 3.855 17.2299 3.85489 17.2292L2.70062 10.3218L2.70023 10.3196C2.64428 9.9894 2.69153 9.55754 2.8572 9.12308C3.02284 8.68871 3.27534 8.33439 3.53881 8.12418L3.54055 8.12278L9.54472 3.31028L9.54549 3.30967C10.3382 2.67303 11.6519 2.6724 12.4662 3.32064C12.4664 3.32083 12.4667 3.32103 12.4669 3.32122ZM11.0001 18.1875C11.9282 18.1875 12.6876 17.4281 12.6876 16.5V13.75C12.6876 12.8219 11.9282 12.0625 11.0001 12.0625C10.072 12.0625 9.31263 12.8219 9.31263 13.75V16.5C9.31263 17.4281 10.072 18.1875 11.0001 18.1875Z" stroke="#384459" stroke-width="2"/>
</svg>
